<mxfile host="65bd71144e">
    <diagram name="Page-1" id="nF1ajHOt5IyO5t8-scIK">
        <mxGraphModel dx="683" dy="381" grid="1" gridSize="10" guides="1" tooltips="1" connect="1" arrows="1" fold="1" page="1" pageScale="1" pageWidth="1169" pageHeight="827" math="0" shadow="0">
            <root>
                <mxCell id="0"/>
                <mxCell id="1" parent="0"/>
                <mxCell id="7" value="" style="endArrow=oval;html=1;exitX=0.5;exitY=0;exitDx=0;exitDy=0;entryX=0.5;entryY=1;entryDx=0;entryDy=0;startArrow=oval;startFill=1;endFill=1;" edge="1" parent="1" source="YYv9o5sGhHZPtvHrjsXI-8" target="3">
                    <mxGeometry width="50" height="50" relative="1" as="geometry">
                        <mxPoint x="430" y="290" as="sourcePoint"/>
                        <mxPoint x="480" y="240" as="targetPoint"/>
                    </mxGeometry>
                </mxCell>
                <mxCell id="YYv9o5sGhHZPtvHrjsXI-1" value="NodeMCU-ESP8266" style="rounded=0;whiteSpace=wrap;html=1;" parent="1" vertex="1">
                    <mxGeometry x="360" y="280" width="240" height="120" as="geometry"/>
                </mxCell>
                <mxCell id="YYv9o5sGhHZPtvHrjsXI-2" value="" style="ellipse;whiteSpace=wrap;html=1;aspect=fixed;" parent="1" vertex="1">
                    <mxGeometry x="370" y="290" width="10" height="10" as="geometry"/>
                </mxCell>
                <mxCell id="YYv9o5sGhHZPtvHrjsXI-3" value="" style="ellipse;whiteSpace=wrap;html=1;aspect=fixed;" parent="1" vertex="1">
                    <mxGeometry x="370" y="380" width="10" height="10" as="geometry"/>
                </mxCell>
                <mxCell id="YYv9o5sGhHZPtvHrjsXI-4" value="" style="ellipse;whiteSpace=wrap;html=1;aspect=fixed;" parent="1" vertex="1">
                    <mxGeometry x="580" y="290" width="10" height="10" as="geometry"/>
                </mxCell>
                <mxCell id="YYv9o5sGhHZPtvHrjsXI-5" value="" style="ellipse;whiteSpace=wrap;html=1;aspect=fixed;" parent="1" vertex="1">
                    <mxGeometry x="580" y="380" width="10" height="10" as="geometry"/>
                </mxCell>
                <mxCell id="YYv9o5sGhHZPtvHrjsXI-6" value="USB" style="rounded=0;whiteSpace=wrap;html=1;rotation=-90;" parent="1" vertex="1">
                    <mxGeometry x="570" y="330" width="30" height="20" as="geometry"/>
                </mxCell>
                <mxCell id="YYv9o5sGhHZPtvHrjsXI-7" value="&lt;p style=&quot;line-height: 150%;&quot;&gt;&lt;font style=&quot;font-size: 7px;&quot;&gt;D0&lt;/font&gt;&lt;/p&gt;" style="rounded=0;whiteSpace=wrap;html=1;" parent="1" vertex="1">
                    <mxGeometry x="390" y="280" width="20" height="10" as="geometry"/>
                </mxCell>
                <mxCell id="YYv9o5sGhHZPtvHrjsXI-8" value="&lt;p style=&quot;line-height: 150%;&quot;&gt;&lt;font style=&quot;font-size: 7px;&quot;&gt;D1&lt;/font&gt;&lt;/p&gt;" style="rounded=0;whiteSpace=wrap;html=1;" parent="1" vertex="1">
                    <mxGeometry x="410" y="280" width="20" height="10" as="geometry"/>
                </mxCell>
                <mxCell id="8" style="edgeStyle=none;html=1;exitX=0.5;exitY=0;exitDx=0;exitDy=0;endArrow=oval;endFill=1;startArrow=oval;startFill=1;" edge="1" parent="1" source="YYv9o5sGhHZPtvHrjsXI-9" target="4">
                    <mxGeometry relative="1" as="geometry"/>
                </mxCell>
                <mxCell id="YYv9o5sGhHZPtvHrjsXI-9" value="&lt;p style=&quot;line-height: 150%;&quot;&gt;&lt;font style=&quot;font-size: 7px;&quot;&gt;D2&lt;/font&gt;&lt;/p&gt;" style="rounded=0;whiteSpace=wrap;html=1;" parent="1" vertex="1">
                    <mxGeometry x="430" y="280" width="20" height="10" as="geometry"/>
                </mxCell>
                <mxCell id="YYv9o5sGhHZPtvHrjsXI-10" value="&lt;p style=&quot;line-height: 150%;&quot;&gt;&lt;font style=&quot;font-size: 7px;&quot;&gt;D3&lt;/font&gt;&lt;/p&gt;" style="rounded=0;whiteSpace=wrap;html=1;" parent="1" vertex="1">
                    <mxGeometry x="450" y="280" width="20" height="10" as="geometry"/>
                </mxCell>
                <mxCell id="14" style="edgeStyle=none;html=1;exitX=0.5;exitY=0;exitDx=0;exitDy=0;startArrow=oval;startFill=1;endArrow=oval;endFill=1;" edge="1" parent="1" source="YYv9o5sGhHZPtvHrjsXI-11" target="11">
                    <mxGeometry relative="1" as="geometry">
                        <Array as="points">
                            <mxPoint x="480" y="260"/>
                        </Array>
                    </mxGeometry>
                </mxCell>
                <mxCell id="YYv9o5sGhHZPtvHrjsXI-11" value="&lt;p style=&quot;line-height: 150%;&quot;&gt;&lt;font style=&quot;font-size: 7px;&quot;&gt;D4&lt;/font&gt;&lt;/p&gt;" style="rounded=0;whiteSpace=wrap;html=1;" parent="1" vertex="1">
                    <mxGeometry x="470" y="280" width="20" height="10" as="geometry"/>
                </mxCell>
                <mxCell id="YYv9o5sGhHZPtvHrjsXI-12" value="&lt;p style=&quot;line-height: 150%;&quot;&gt;&lt;font style=&quot;font-size: 7px;&quot;&gt;Vin&lt;/font&gt;&lt;/p&gt;" style="rounded=0;whiteSpace=wrap;html=1;" parent="1" vertex="1">
                    <mxGeometry x="550" y="380" width="20" height="10" as="geometry"/>
                </mxCell>
                <mxCell id="YYv9o5sGhHZPtvHrjsXI-13" value="&lt;p style=&quot;line-height: 150%;&quot;&gt;&lt;font style=&quot;font-size: 7px;&quot;&gt;GND&lt;/font&gt;&lt;/p&gt;" style="rounded=0;whiteSpace=wrap;html=1;" parent="1" vertex="1">
                    <mxGeometry x="530" y="380" width="20" height="10" as="geometry"/>
                </mxCell>
                <mxCell id="2" value="PCF8574 i2c - 2x16 LCD" style="rounded=0;whiteSpace=wrap;html=1;" vertex="1" parent="1">
                    <mxGeometry x="360" y="140" width="240" height="60" as="geometry"/>
                </mxCell>
                <mxCell id="3" value="&lt;p style=&quot;line-height: 150%;&quot;&gt;&lt;font style=&quot;font-size: 7px;&quot;&gt;sdl&lt;/font&gt;&lt;/p&gt;" style="rounded=0;whiteSpace=wrap;html=1;" vertex="1" parent="1">
                    <mxGeometry x="410" y="190" width="20" height="10" as="geometry"/>
                </mxCell>
                <mxCell id="4" value="&lt;p style=&quot;line-height: 150%;&quot;&gt;&lt;font style=&quot;font-size: 7px;&quot;&gt;sda&lt;/font&gt;&lt;/p&gt;" style="rounded=0;whiteSpace=wrap;html=1;" vertex="1" parent="1">
                    <mxGeometry x="430" y="190" width="20" height="10" as="geometry"/>
                </mxCell>
                <mxCell id="5" value="&lt;p style=&quot;line-height: 150%;&quot;&gt;&lt;font style=&quot;font-size: 7px;&quot;&gt;Vin&lt;/font&gt;&lt;/p&gt;" style="rounded=0;whiteSpace=wrap;html=1;" vertex="1" parent="1">
                    <mxGeometry x="450" y="190" width="20" height="10" as="geometry"/>
                </mxCell>
                <mxCell id="6" value="&lt;p style=&quot;line-height: 150%;&quot;&gt;&lt;font style=&quot;font-size: 7px;&quot;&gt;GND&lt;/font&gt;&lt;/p&gt;" style="rounded=0;whiteSpace=wrap;html=1;" vertex="1" parent="1">
                    <mxGeometry x="470" y="190" width="20" height="10" as="geometry"/>
                </mxCell>
                <mxCell id="10" value="Piezo&lt;br&gt;Buzzer" style="ellipse;whiteSpace=wrap;html=1;aspect=fixed;" vertex="1" parent="1">
                    <mxGeometry x="680" y="220" width="80" height="80" as="geometry"/>
                </mxCell>
                <mxCell id="11" value="&lt;p style=&quot;line-height: 150%;&quot;&gt;&lt;font style=&quot;font-size: 7px;&quot;&gt;Pos&lt;/font&gt;&lt;/p&gt;" style="rounded=0;whiteSpace=wrap;html=1;rotation=90;" vertex="1" parent="1">
                    <mxGeometry x="670" y="255" width="20" height="10" as="geometry"/>
                </mxCell>
                <mxCell id="13" value="&lt;p style=&quot;line-height: 150%;&quot;&gt;&lt;font style=&quot;font-size: 7px;&quot;&gt;GND&lt;/font&gt;&lt;/p&gt;" style="rounded=0;whiteSpace=wrap;html=1;rotation=90;" vertex="1" parent="1">
                    <mxGeometry x="750" y="255" width="20" height="10" as="geometry"/>
                </mxCell>
            </root>
        </mxGraphModel>
    </diagram>
</mxfile>